<svg xmlns="http://www.w3.org/2000/svg" width="348" height="35" viewBox="0 0 348 35" fill="none"><g clip-path="url(#clip0_1051_2235)"><path d="M55.9591 0H3.5892C2.14305 0 0.970703 1.17234 0.970703 2.6185V32.2948C0.970703 33.741 2.14305 34.9133 3.5892 34.9133H55.9591C57.4053 34.9133 58.5776 33.741 58.5776 32.2948V2.6185C58.5776 1.17234 57.4053 0 55.9591 0Z" fill="#F7F7F7"></path><path d="M26.8644 24.2374H23.3291L25.5403 10.7188H29.0754L26.8644 24.2374Z" fill="#4A5568"></path><path d="M39.68 11.0492C38.9827 10.7756 37.8767 10.4736 36.5092 10.4736C33.018 10.4736 30.5595 12.3144 30.5444 14.9461C30.5154 16.8878 32.3046 17.9663 33.6428 18.6137C35.0105 19.2753 35.4755 19.7071 35.4755 20.2968C35.4616 21.2024 34.3703 21.6199 33.3524 21.6199C31.941 21.6199 31.1847 21.4047 30.0354 20.9008L29.5699 20.6848L29.0752 23.7195C29.9043 24.093 31.432 24.4244 33.018 24.439C36.7274 24.439 39.1424 22.6267 39.171 19.8221C39.1851 18.2832 38.2404 17.104 36.2035 16.1404C34.9671 15.5219 34.2098 15.1048 34.2098 14.4719C34.2243 13.8965 34.8503 13.3072 36.2461 13.3072C37.3954 13.2784 38.2398 13.5515 38.8795 13.8249L39.1993 13.9684L39.68 11.0492Z" fill="#4A5568"></path><path d="M44.3788 19.4482C44.67 18.6716 45.7903 15.6659 45.7903 15.6659C45.7756 15.6947 46.0808 14.8749 46.2554 14.3716L46.5025 15.5365C46.5025 15.5365 47.1719 18.7724 47.3173 19.4482C46.7648 19.4482 45.0771 19.4482 44.3788 19.4482ZM48.7427 10.7188H46.0081C45.1649 10.7188 44.5242 10.963 44.1604 11.8404L38.9092 24.2374H42.6186C42.6186 24.2374 43.2293 22.5687 43.3606 22.2094C43.7675 22.2094 47.3761 22.2094 47.8996 22.2094C48.0011 22.684 48.3214 24.2374 48.3214 24.2374H51.5948L48.7427 10.7188Z" fill="#4A5568"></path><path d="M20.3758 10.7188L16.9136 19.9373L16.5353 18.0676C15.8952 15.9102 13.8878 13.5665 11.6475 12.401L14.8188 24.2232H18.5572L24.1141 10.7188H20.3758Z" fill="#4A5568"></path><path d="M13.6992 10.7188H8.01131L7.95312 10.9919C12.39 12.1138 15.3285 14.8178 16.5358 18.0681L15.2993 11.8551C15.0958 10.9917 14.4702 10.7472 13.6992 10.7188Z" fill="#FAA61A"></path></g><g clip-path="url(#clip1_1051_2235)"><path d="M128.243 0H77.6185C76.1723 0 75 1.17234 75 2.6185V32.2948C75 33.741 76.1723 34.9133 77.6185 34.9133H128.243C129.689 34.9133 130.861 33.741 130.861 32.2948V2.6185C130.861 1.17234 129.689 0 128.243 0Z" fill="#F7F7F7"></path><path d="M87.0819 12.2202H83.7765C83.5504 12.2202 83.358 12.3849 83.3227 12.6086L81.9859 21.1015C81.9593 21.269 82.0888 21.4201 82.2585 21.4201H83.8365C84.0627 21.4201 84.255 21.2555 84.2903 21.0313L84.6508 18.7406C84.6856 18.5164 84.8785 18.3517 85.1042 18.3517H86.1505C88.3278 18.3517 89.5844 17.296 89.9126 15.2039C90.0605 14.2886 89.9189 13.5694 89.4912 13.0658C89.0214 12.5127 88.1882 12.2202 87.0819 12.2202ZM87.4632 15.322C87.2824 16.5105 86.3762 16.5105 85.5 16.5105H85.0012L85.3512 14.291C85.3719 14.1569 85.4879 14.0581 85.6233 14.0581H85.8519C86.4487 14.0581 87.0118 14.0581 87.3027 14.399C87.4763 14.6024 87.5294 14.9046 87.4632 15.322Z" fill="#4A5568"></path><path d="M96.962 15.2834H95.3792C95.2443 15.2834 95.1278 15.3822 95.107 15.5164L95.037 15.96L94.9263 15.7992C94.5836 15.3009 93.8195 15.1343 93.0569 15.1343C91.3078 15.1343 89.8139 16.4617 89.5229 18.3238C89.3716 19.2526 89.5867 20.1408 90.1126 20.7602C90.5949 21.3297 91.2851 21.567 92.1062 21.567C93.5155 21.567 94.297 20.659 94.297 20.659L94.2265 21.0997C94.1999 21.2682 94.3294 21.4193 94.4981 21.4193H95.9238C96.1505 21.4193 96.3419 21.2546 96.3777 21.0304L97.2331 15.6021C97.2602 15.435 97.1311 15.2834 96.962 15.2834ZM94.7557 18.3703C94.603 19.2763 93.8852 19.8846 92.9699 19.8846C92.5102 19.8846 92.1429 19.7369 91.9071 19.457C91.6732 19.179 91.5842 18.7833 91.6587 18.3427C91.8012 17.4443 92.531 16.8162 93.4324 16.8162C93.8819 16.8162 94.2472 16.9658 94.4879 17.2482C94.7291 17.5334 94.8248 17.9315 94.7557 18.3703Z" fill="#4A5568"></path><path d="M105.392 15.2842H103.802C103.65 15.2842 103.507 15.3597 103.421 15.4861L101.227 18.724L100.298 15.6125C100.239 15.4178 100.06 15.2842 99.8569 15.2842H98.2939C98.1039 15.2842 97.972 15.4701 98.0324 15.6493L99.7844 20.8011L98.1373 23.131C98.0077 23.3146 98.1382 23.5669 98.362 23.5669H99.9506C100.101 23.5669 100.242 23.4933 100.328 23.3693L105.618 15.7176C105.745 15.5346 105.615 15.2842 105.392 15.2842Z" fill="#4A5568"></path><path d="M110.658 12.2202H107.352C107.126 12.2202 106.934 12.3849 106.899 12.6086L105.562 21.1015C105.535 21.269 105.665 21.4201 105.834 21.4201H107.53C107.688 21.4201 107.822 21.3049 107.847 21.148L108.226 18.7406C108.261 18.5164 108.454 18.3517 108.68 18.3517H109.726C111.903 18.3517 113.16 17.296 113.488 15.2039C113.637 14.2886 113.494 13.5694 113.066 13.0658C112.597 12.5127 111.764 12.2202 110.658 12.2202ZM111.039 15.322C110.859 16.5105 109.953 16.5105 109.076 16.5105H108.578L108.928 14.291C108.949 14.1569 109.064 14.0581 109.2 14.0581H109.428C110.025 14.0581 110.588 14.0581 110.879 14.399C111.053 14.6024 111.106 14.9046 111.039 15.322Z" fill="#4A5568"></path><path d="M120.538 15.2834H118.956C118.82 15.2834 118.705 15.3822 118.685 15.5164L118.615 15.96L118.503 15.7992C118.161 15.3009 117.397 15.1343 116.634 15.1343C114.885 15.1343 113.392 16.4617 113.101 18.3238C112.95 19.2526 113.164 20.1408 113.69 20.7602C114.173 21.3297 114.863 21.567 115.684 21.567C117.093 21.567 117.875 20.659 117.875 20.659L117.804 21.0997C117.777 21.2682 117.907 21.4193 118.077 21.4193H119.502C119.728 21.4193 119.92 21.2546 119.955 21.0304L120.811 15.6021C120.837 15.435 120.708 15.2834 120.538 15.2834ZM118.332 18.3703C118.18 19.2763 117.461 19.8846 116.546 19.8846C116.087 19.8846 115.719 19.7369 115.483 19.457C115.249 19.179 115.161 18.7833 115.235 18.3427C115.378 17.4443 116.107 16.8162 117.009 16.8162C117.458 16.8162 117.823 16.9658 118.064 17.2482C118.306 17.5334 118.402 17.9315 118.332 18.3703Z" fill="#4A5568"></path><path d="M122.404 12.4532L121.047 21.1015C121.021 21.269 121.15 21.4201 121.319 21.4201H122.683C122.91 21.4201 123.102 21.2555 123.137 21.0313L124.475 12.5389C124.501 12.3713 124.372 12.2197 124.203 12.2197H122.676C122.541 12.2202 122.425 12.319 122.404 12.4532Z" fill="#4A5568"></path></g><g clip-path="url(#clip2_1051_2235)"><path d="M200.283 0H149.659C148.212 0 147.04 1.17234 147.04 2.6185V32.2948C147.04 33.741 148.212 34.9133 149.659 34.9133H200.283C201.729 34.9133 202.901 33.741 202.901 32.2948V2.6185C202.901 1.17234 201.729 0 200.283 0Z" fill="#F7F7F7"></path><mask id="mask0_1051_2235" style="mask-type:alpha" maskUnits="userSpaceOnUse" x="158" y="9" width="34" height="15"><path d="M158.392 9.65186H191.532V23.5653H158.392V9.65186Z" fill="white"></path></mask><g mask="url(#mask0_1051_2235)"><path fill-rule="evenodd" clip-rule="evenodd" d="M161.85 15.9104C161.136 15.6431 160.745 15.4351 160.745 15.1083C160.745 14.831 160.97 14.6726 161.371 14.6726C162.105 14.6726 162.858 14.9598 163.377 15.2172L163.67 13.3852C163.259 13.1872 162.418 12.8604 161.253 12.8604C160.432 12.8604 159.747 13.0782 159.258 13.4842C158.749 13.91 158.485 14.524 158.485 15.2667C158.485 16.6135 159.297 17.1879 160.618 17.6731C161.469 17.9801 161.752 18.198 161.752 18.5347C161.752 18.8615 161.478 19.0496 160.979 19.0496C160.363 19.0496 159.346 18.7426 158.68 18.3465L158.387 20.1983C158.954 20.5251 160.011 20.8618 161.107 20.8618C161.977 20.8618 162.701 20.6538 163.191 20.2577C163.739 19.822 164.022 19.1784 164.022 18.3465C164.022 16.97 163.191 16.3957 161.85 15.9104ZM168.801 14.831L169.094 13.0089H167.545V10.797L165.461 11.144L165.16 13.0089L164.428 13.1292L164.153 14.831H165.157V18.4059C165.157 19.3368 165.392 19.9805 165.871 20.3766C166.273 20.7034 166.85 20.8618 167.662 20.8618C168.288 20.8618 168.67 20.7529 168.934 20.6835V18.7525C168.787 18.7922 168.454 18.8615 168.229 18.8615C167.75 18.8615 167.545 18.6139 167.545 18.0494V14.831H168.801ZM173.454 12.9025C172.769 12.9025 172.221 13.2664 172.006 13.92L171.859 13.0089H169.736V20.7132H172.163V15.7124C172.466 15.336 172.896 15.2 173.483 15.2C173.611 15.2 173.748 15.2 173.914 15.2297V12.9619C173.748 12.9223 173.601 12.9025 173.454 12.9025ZM175.724 12.2464C176.428 12.2464 176.996 11.6621 176.996 10.9491C176.996 10.2262 176.428 9.65186 175.724 9.65186C175.01 9.65186 174.442 10.2262 174.442 10.9491C174.442 11.6621 175.01 12.2464 175.724 12.2464ZM174.501 13.0089H176.937V20.7132H174.501V13.0089ZM183.841 13.7021C183.41 13.1376 182.814 12.8604 182.05 12.8604C181.346 12.8604 180.73 13.1574 180.152 13.7813L180.025 13.0089H177.892V23.5653L180.319 23.1593V20.6835C180.69 20.8024 181.072 20.8618 181.414 20.8618C182.021 20.8618 182.902 20.7034 183.587 19.9508C184.242 19.2278 184.575 18.1089 184.575 16.6333C184.575 15.3262 184.33 14.3359 183.841 13.7021ZM181.825 18.4554C181.63 18.8317 181.326 19.0298 180.974 19.0298C180.73 19.0298 180.514 18.9803 180.319 18.8813V15.2172C180.73 14.7815 181.101 14.732 181.238 14.732C181.855 14.732 182.158 15.4054 182.158 16.7224C182.158 17.475 182.05 18.0593 181.825 18.4554ZM191.531 16.7917C191.531 15.5638 191.267 14.5933 190.748 13.91C190.22 13.2169 189.428 12.8604 188.42 12.8604C186.355 12.8604 185.074 14.4052 185.074 16.8809C185.074 18.2673 185.416 19.3071 186.091 19.9705C186.698 20.5647 187.569 20.8618 188.694 20.8618C189.731 20.8618 190.69 20.6142 191.296 20.2082L191.032 18.5248C190.435 18.8516 189.741 19.0298 188.958 19.0298C188.488 19.0298 188.165 18.9307 187.931 18.7228C187.676 18.505 187.529 18.1485 187.481 17.6434H191.502C191.512 17.5246 191.531 16.97 191.531 16.7917ZM187.461 16.1382C187.529 15.0389 187.823 14.524 188.381 14.524C188.929 14.524 189.212 15.0489 189.251 16.1382H187.461Z" fill="#4A5568"></path></g></g><g clip-path="url(#clip3_1051_2235)"><path d="M273.185 0H222.561C221.115 0 219.942 1.17234 219.942 2.6185V32.2948C219.942 33.741 221.115 34.9133 222.561 34.9133H273.185C274.631 34.9133 275.804 33.741 275.804 32.2948V2.6185C275.804 1.17234 274.631 0 273.185 0Z" fill="#F7F7F7"></path><path d="M241.655 24.2667C246.895 24.2667 251.144 20.1977 251.144 15.1862C251.144 10.1747 246.895 6.10986 241.655 6.10986C236.412 6.10986 232.162 10.1747 232.162 15.1862C232.162 20.1977 236.412 24.2667 241.655 24.2667Z" fill="#4A5568"></path><path d="M254.858 24.2667C260.099 24.2667 264.349 20.1977 264.349 15.1862C264.349 10.1747 260.099 6.10986 254.858 6.10986C249.613 6.10986 245.367 10.1747 245.367 15.1862C245.367 20.1977 249.613 24.2667 254.858 24.2667Z" fill="#4A5568"></path><path d="M248.248 21.7908C246.463 20.1662 245.367 17.9779 245.367 15.574C245.367 13.1951 246.444 11.0275 248.195 9.41113L248.418 9.5106C250.111 11.1187 251.144 13.2448 251.144 15.574C251.144 17.9157 250.101 20.046 248.399 21.6582L248.248 21.7908Z" fill="#4A5568"></path><path d="M232.987 25.8438H233.859L234.977 28.6018L235.976 25.8438H236.898V29.5181H236.182V26.7917L235.223 29.5181H234.68L233.722 26.8278V29.5181H232.987V25.8438Z" fill="#4A5568"></path><path d="M244.656 29.5178V25.8931H244.013V29.5178H244.656Z" fill="#4A5568"></path><path d="M243.644 26.7061V27.3786H245.076V26.7061H243.644Z" fill="#4A5568"></path><path d="M240.568 29.5182V26.7061H239.956V29.5182H240.568Z" fill="#4A5568"></path><path d="M258.168 29.5182V26.7061H257.557V29.5182H258.168Z" fill="#4A5568"></path><path d="M263.691 29.5183V26.002H263.079V29.5183H263.691Z" fill="#4A5568"></path><path d="M249.84 26.7061H249.206V29.5183H249.849V27.6585C250 27.3561 250.452 27.2929 250.525 27.2929V26.688C250.374 26.688 249.859 26.8008 249.84 27.0762V26.7061H249.84Z" fill="#4A5568"></path><path d="M259.566 26.7061H258.927V29.5183H259.575V27.6585C259.721 27.3561 260.177 27.2929 260.246 27.2929V26.688C260.1 26.688 259.584 26.8008 259.566 27.0762V26.7061Z" fill="#4A5568"></path><path d="M242.484 27.5093H243.109C243.109 27.0173 242.79 26.7148 242.265 26.7148C241.74 26.7148 241.325 26.9857 241.325 27.5905C241.325 28.1954 241.968 28.2812 242.073 28.3083C242.201 28.3443 242.552 28.385 242.552 28.7687C242.552 28.9131 242.379 28.9492 242.228 28.9492C242.082 28.9492 241.932 28.8364 241.932 28.6694H241.233C241.233 29.3013 241.731 29.5541 242.228 29.5541C242.726 29.5541 243.2 29.1568 243.2 28.6783C243.2 28.209 242.735 27.9335 242.37 27.8794C241.817 27.8026 241.872 27.3287 242.192 27.3287C242.493 27.3287 242.475 27.4596 242.484 27.5093Z" fill="#4A5568"></path><path d="M253.943 28.5114C253.715 28.7958 253.363 28.9764 252.971 28.9764C252.286 28.9764 251.734 28.4301 251.734 27.7621C251.734 27.085 252.286 26.5389 252.971 26.5389C253.359 26.5389 253.71 26.7149 253.934 26.9948H254.737C254.44 26.2997 253.751 25.8438 252.971 25.8438C251.898 25.8438 251.031 26.7013 251.031 27.7621C251.031 28.8138 251.898 29.6761 252.971 29.6761C253.765 29.6761 254.449 29.1885 254.751 28.5114H253.943Z" fill="#4A5568"></path><path d="M262.221 29.5863C263.038 29.5863 263.705 28.9272 263.705 28.1238C263.705 27.3113 263.038 26.6567 262.221 26.6567V27.2797C262.691 27.2797 263.075 27.6588 263.075 28.1238C263.075 28.5842 262.691 28.9634 262.221 28.9634V29.5863ZM262.221 29.5863V28.9634C261.751 28.9634 261.368 28.5842 261.368 28.1238C261.368 27.6588 261.751 27.2797 262.221 27.2797V26.6567C261.405 26.6567 260.738 27.3113 260.738 28.1238C260.738 28.9272 261.405 29.5863 262.221 29.5863Z" fill="#4A5568"></path><path d="M256.699 29.5863C257.52 29.5863 258.182 28.9272 258.182 28.1238C258.182 27.3113 257.52 26.6567 256.699 26.6567V27.2797C257.169 27.2797 257.552 27.6588 257.552 28.1238C257.552 28.5842 257.169 28.9634 256.699 28.9634V29.5863ZM256.699 26.6568C255.882 26.6568 255.216 27.3113 255.216 28.1238C255.216 28.9273 255.882 29.5864 256.699 29.5864V28.9634C256.229 28.9634 255.846 28.5843 255.846 28.1238C255.846 27.6589 256.229 27.2797 256.699 27.2797V26.6568Z" fill="#4A5568"></path><path d="M247.043 28.4121H248.49C248.494 28.3715 248.499 28.3263 248.499 28.2857V28.1638C248.476 27.5093 248.061 26.7058 247.043 26.6968V27.3784C247.39 27.3784 247.732 27.5364 247.732 27.8478H247.043V28.4121H247.043ZM247.043 29.5948C247.618 29.5858 248.426 29.2156 248.426 28.7417H247.655C247.655 28.8546 247.358 28.9583 247.043 28.9539V29.5948ZM246.336 28.4121H247.043V27.8478H246.354C246.354 27.5364 246.696 27.3784 247.043 27.3784V26.6968C247.039 26.6968 247.03 26.6968 247.025 26.6968C246.103 26.6968 245.601 27.4552 245.597 28.1955V28.2226C245.61 28.9223 246.062 29.5948 247.016 29.5948C247.025 29.5948 247.034 29.5948 247.043 29.5948V28.9538C246.696 28.9493 246.336 28.8093 246.336 28.4121Z" fill="#4A5568"></path><path d="M239.102 29.5863C239.919 29.5863 240.585 28.9272 240.585 28.1238C240.585 27.3113 239.919 26.6567 239.102 26.6567V27.2797C239.572 27.2797 239.956 27.6588 239.956 28.1238C239.956 28.5842 239.572 28.9634 239.102 28.9634V29.5863ZM239.102 29.5863V28.9634C238.632 28.9634 238.249 28.5842 238.249 28.1238C238.249 27.6588 238.632 27.2797 239.102 27.2797V26.6567C238.281 26.6567 237.619 27.3113 237.619 28.1238C237.619 28.9272 238.281 29.5863 239.102 29.5863Z" fill="#4A5568"></path></g><g clip-path="url(#clip4_1051_2235)"><path d="M345.381 0H294.757C293.311 0 292.139 1.17234 292.139 2.6185V32.2948C292.139 33.741 293.311 34.9133 294.757 34.9133H345.381C346.828 34.9133 348 33.741 348 32.2948V2.6185C348 1.17234 346.828 0 345.381 0Z" fill="#F7F7F7"></path><path d="M306.163 25.3143V18.1362H313.693L314.501 19.1997L315.336 18.1362H342.65V24.8193C342.65 24.8193 341.937 25.3051 341.111 25.3143H325.984L325.071 24.1821V25.3143H322.089V23.38C322.089 23.38 321.681 23.6504 320.8 23.6504H319.784V25.3143H315.268L314.46 24.228L313.643 25.3143H306.163Z" fill="white"></path><path d="M297.376 12.7231L299.073 8.72607H302.01L302.972 10.9629V8.72607H306.621L307.193 10.3441L307.747 8.72607H324.127V9.53739C324.127 9.53739 324.99 8.72607 326.401 8.72607L331.716 8.74441L332.665 10.9538V8.72607H335.719L336.559 9.99576V8.72607H339.641V15.9087H336.559L335.755 14.6345V15.9087H331.271L330.822 14.7766H329.615L329.17 15.9087H326.129C324.912 15.9087 324.132 15.1112 324.132 15.1112V15.9087H319.539L318.626 14.7766V15.9087H301.574L301.125 14.7766H299.922L299.473 15.9087H297.376V12.7231Z" fill="white"></path><path d="M299.673 9.61523L297.386 14.9919H298.874L299.297 13.9147H301.752L302.174 14.9919H303.699L301.412 9.61523H299.673ZM300.522 10.862L301.271 12.7413H299.773L300.522 10.862Z" fill="#4A5568"></path><path d="M303.853 14.9875V9.61084L305.972 9.62001L307.202 13.0853L308.405 9.61084H310.506V14.9875H309.176V11.0272L307.765 14.9875H306.598L305.182 11.0272V14.9875H303.853Z" fill="#4A5568"></path><path d="M311.419 14.9875V9.61084H315.762V10.8118H312.767V11.7331H315.69V12.8653H312.762V13.8187H315.758V14.9875H311.419Z" fill="#4A5568"></path><path d="M316.529 9.61523V14.9919H317.859V13.0805H318.417L320.015 14.9919H321.64L319.888 13.0118C320.605 12.9522 321.349 12.3288 321.349 11.3616C321.349 10.2295 320.469 9.61982 319.489 9.61982L316.529 9.61523ZM317.859 10.8162H319.38C319.743 10.8162 320.01 11.1049 320.01 11.38C320.01 11.7375 319.666 11.9438 319.398 11.9438H317.859V10.8162Z" fill="#4A5568"></path><path d="M323.252 14.9875H321.895V9.61084H323.252V14.9875Z" fill="#4A5568"></path><path d="M326.474 14.9873H326.179C324.758 14.9873 323.9 13.8597 323.9 12.3242C323.9 10.752 324.754 9.61523 326.542 9.61523H328.012V10.8895H326.492C325.766 10.8895 325.248 11.4625 325.248 12.3379C325.248 13.3784 325.838 13.8139 326.683 13.8139H327.032L326.474 14.9873Z" fill="#4A5568"></path><path d="M329.37 9.61543L327.082 14.9875H328.571L328.993 13.9104H331.448L331.87 14.9875H333.391L331.103 9.61084L329.37 9.61543ZM330.214 10.8622L330.963 12.7415H329.465L330.214 10.8622Z" fill="#4A5568"></path><path d="M333.545 14.9875V9.61084H335.238L337.398 12.989V9.61084H338.728V14.9875H337.09L334.875 11.5222V14.9875H333.545Z" fill="#4A5568"></path><path d="M307.075 24.3933V19.0166H311.419V20.2175H308.423V21.1389H311.351V22.271H308.423V23.2244H311.419V24.3933H307.075Z" fill="#4A5568"></path><path d="M328.349 24.3933V19.0166H332.692V20.2175H329.697V21.1389H332.61V22.271H329.697V23.2244H332.692V24.3933H328.349Z" fill="#4A5568"></path><path d="M311.587 24.3933L313.702 21.7393L311.537 19.0166H313.212L314.501 20.6988L315.794 19.0166H317.406L315.268 21.7026L317.388 24.3887H315.713L314.46 22.734L313.239 24.3887L311.587 24.3933Z" fill="#4A5568"></path><path d="M317.547 19.021V24.3977H318.913V22.7017H320.315C321.5 22.7017 322.399 22.0646 322.399 20.8316C322.399 19.8094 321.695 19.0256 320.488 19.0256H317.547V19.021ZM318.913 20.2357H320.388C320.769 20.2357 321.046 20.474 321.046 20.8545C321.046 21.212 320.774 21.4733 320.384 21.4733H318.913V20.2357Z" fill="#4A5568"></path><path d="M322.97 19.0166V24.3933H324.3V22.4819H324.858L326.456 24.3933H328.08L326.328 22.4131C327.046 22.3535 327.79 21.7302 327.79 20.763C327.79 19.6308 326.909 19.0212 325.929 19.0212L322.97 19.0166ZM324.304 20.2221H325.825C326.188 20.2221 326.456 20.5109 326.456 20.7859C326.456 21.1434 326.111 21.3497 325.843 21.3497H324.304V20.2221Z" fill="#4A5568"></path><path d="M333.309 24.3931V23.2242H335.973C336.368 23.2242 336.536 23.0088 336.536 22.775C336.536 22.5504 336.368 22.3213 335.973 22.3213H334.77C333.726 22.3213 333.141 21.6795 333.141 20.7124C333.141 19.8506 333.676 19.021 335.228 19.021H337.82L337.262 20.2311H335.02C334.593 20.2311 334.461 20.4603 334.461 20.6757C334.461 20.9003 334.625 21.1432 334.952 21.1432H336.213C337.38 21.1432 337.884 21.8125 337.884 22.688C337.884 23.6276 337.321 24.3977 336.15 24.3977H333.309V24.3931Z" fill="#4A5568"></path><path d="M338.192 24.3931V23.2242H340.857C341.252 23.2242 341.419 23.0088 341.419 22.775C341.419 22.5504 341.252 22.3213 340.857 22.3213H339.654C338.61 22.3213 338.024 21.6795 338.024 20.7124C338.024 19.8506 338.56 19.021 340.112 19.021H342.704L342.146 20.2311H339.903C339.477 20.2311 339.345 20.4603 339.345 20.6757C339.345 20.9003 339.509 21.1432 339.835 21.1432H341.097C342.264 21.1432 342.767 21.8125 342.767 22.688C342.767 23.6276 342.205 24.3977 341.034 24.3977H338.192V24.3931Z" fill="#4A5568"></path></g><defs><clipPath id="clip0_1051_2235"><rect width="59" height="35" fill="white"></rect></clipPath><clipPath id="clip1_1051_2235"><rect width="56" height="35" fill="white" transform="translate(75)"></rect></clipPath><clipPath id="clip2_1051_2235"><rect width="56" height="35" fill="white" transform="translate(147)"></rect></clipPath><clipPath id="clip3_1051_2235"><rect width="57" height="35" fill="white" transform="translate(219)"></rect></clipPath><clipPath id="clip4_1051_2235"><rect width="56" height="35" fill="white" transform="translate(292)"></rect></clipPath></defs></svg>